mastitorrents.com
 
http://mastitorrents.com/forums/index.php

Info -
Cast -
Laxmikant Berde
Kuldeep Pawar
Ramesh Bhatkar
Alka Kubal
Vijay Chavan
Bharat Jadhav
Deepa Parab
Sandeep Bansali
Ragvendra Kadkol
Deepak Shirke.

Media Info -
General
General
Name : Maratha Battalion
Format : AVI
Format/Info : Audio Video Interleave
Format profile : OpenDML
File size : 892 MiB
Duration : 2h 26mn
Overall bit rate : 852 Kbps
Writing application : AVI-Mux GUI 1.17.8.3


Video
ID : 0
Format : MPEG-4 Visual
Format profile : Advanced Simple@L5
Format settings, BVOP : Yes
Format settings, QPel : No
Format settings, GMC : No warppoints
Format settings, Matrix : Default (H.263)
Codec ID : XVID
Codec ID/Hint : XviD
Duration : 2h 26mn
Bit rate : 784 Kbps
Width : 608 pixels
Height : 256 pixels
Display aspect ratio : 2.35:1
Frame rate : 25.000 fps
Color space : YUV
Chroma subsampling : 4:2:0
Bit depth : 8 bits
Scan type : Progressive
Bits/(Pixel*Frame) : 0.202
Stream size : 821 MiB (92%)
Writing library : XviD 1.2.1


Audio
ID : 1
Format : MPEG Audio
Format version : Version 2
Format profile : Layer 3
Mode : Joint stereo
Mode extension : MS Stereo
Codec ID : 55
Codec ID/Hint : MP3
Duration : 2h 26mn
Bit rate mode : Constant
Bit rate : 64.0 Kbps
Channel(s) : 2 channels
Sampling rate : 24.0 KHz
Stream size : 67.0 MiB (8%)
Alignment : Aligned on interleaves
Interleave, duration : 898 ms (22.45 video frames)
Interleave, preload duration : 216 ms
